<svg width="80" height="80" viewBox="0 0 80 80" fill="none" xmlns="http://www.w3.org/2000/svg">
<path d="M60.1867 59.4022C70.6022 48.5733 70.6022 31.4289 60.1867 20.6L64.22 16.5667C68.3289 20.4822 73.8889 22.8889 80 22.8889V21.1111C74.38 21.1111 69.2644 18.9022 65.4778 15.3089L71.8978 8.88889H74.3711L80 3.21333H76.7867V0L71.1111 5.62889V8.10222L64.6911 14.5222C61.0978 10.7356 58.8889 5.62 58.8889 0H57.1111C57.1111 6.11111 59.5178 11.6711 63.4356 15.78L59.4022 19.8133C48.5733 9.39778 31.4289 9.39778 20.6 19.8133L16.5667 15.78C20.4822 11.6711 22.8889 6.11111 22.8889 0H21.1111C21.1111 5.62 18.9022 10.7356 15.3089 14.5222L8.88889 8.10222V5.62889L3.21333 0V3.21333H0L5.62889 8.88889H8.10222L14.5222 15.3089C10.7356 18.9022 5.62 21.1111 0 21.1111V22.8889C6.11111 22.8889 11.6711 20.4822 15.78 16.5644L19.8133 20.5978C9.39778 31.4267 9.39778 48.5711 19.8133 59.4L15.78 63.4333C11.6711 59.5178 6.11111 57.1111 0 57.1111V58.8889C5.62 58.8889 10.7356 61.0978 14.5222 64.6911L8.10222 71.1111H5.62889L0 76.7867H3.21333V80L8.88889 74.3711V71.8978L15.3089 65.4778C18.9022 69.2644 21.1111 74.38 21.1111 80H22.8889C22.8889 73.8889 20.4822 68.3289 16.5644 64.22L20.5978 60.1867C31.4267 70.6022 48.5711 70.6022 59.4 60.1867L63.4333 64.22C59.5178 68.3289 57.1111 73.8889 57.1111 80H58.8889C58.8889 74.38 61.0978 69.2644 64.6911 65.4778L71.1111 71.8978V74.3711L76.7867 80V76.7867H80L74.3711 71.1111H71.8978L65.4778 64.6911C69.2644 61.0978 74.38 58.8889 80 58.8889V57.1111C73.8889 57.1111 68.3289 59.5178 64.22 63.4356L60.1867 59.4022ZM58.1444 21.0711L56.5733 22.6422C47.3067 13.7867 32.6933 13.7867 23.4267 22.6422L21.8556 21.0711C31.9911 11.3489 48.0089 11.3489 58.1444 21.0711ZM42.0556 42.0289L44.6111 43.8333C44.3757 44.1154 44.1154 44.3757 43.8333 44.6111L42.0289 42.0556C40.9044 43.1644 39.0956 43.1644 37.9711 42.0556L36.1667 44.6111C35.8846 44.3757 35.6243 44.1154 35.3889 43.8333L37.9444 42.0289C36.8356 40.9044 36.8356 39.0956 37.9444 37.9711L35.3889 36.1644C35.6244 35.8822 35.8844 35.6222 36.1667 35.3867L37.9733 37.9422C39.0978 36.8311 40.9067 36.8311 42.0311 37.9422L43.8356 35.3867C44.1178 35.6222 44.3778 35.8822 44.6133 36.1644L42.0578 37.9689C43.1667 39.0956 43.1667 40.9044 42.0556 42.0289ZM43.8311 35.3822C41.6156 33.54 38.3844 33.54 36.1689 35.3822L34.12 33.3333C37.4733 30.3711 42.5244 30.3711 45.8778 33.3333L43.8311 35.3822ZM35.3822 36.1689C33.54 38.3844 33.54 41.6156 35.3822 43.8311L33.3333 45.88C30.3711 42.5267 30.3711 37.4756 33.3333 34.1222L35.3822 36.1689ZM36.1689 44.6156C38.3844 46.4578 41.6156 46.4578 43.8311 44.6156L45.88 46.6644C42.5267 49.6267 37.4756 49.6267 34.1222 46.6644L36.1689 44.6156ZM44.6156 43.8311C46.4578 41.6156 46.4578 38.3844 44.6156 36.1689L46.6644 34.12C49.6267 37.4733 49.6267 42.5244 46.6644 45.8778L44.6156 43.8311ZM31.9178 31.1311L29.8756 29.0889C35.58 23.7889 44.4222 23.7889 50.1267 29.0889L48.0844 31.1311C43.5089 26.9578 36.4911 26.9578 31.9178 31.1311ZM31.1311 31.9178C26.9578 36.4911 26.9578 43.5089 31.1311 48.0822L29.0889 50.1244C23.7889 44.42 23.7889 35.5778 29.0889 29.8733L31.1311 31.9178ZM31.9178 48.8689C36.4911 53.0422 43.5089 53.0422 48.0822 48.8689L50.1244 50.9111C44.42 56.2111 35.5778 56.2111 29.8733 50.9111L31.9178 48.8689ZM48.8689 48.0822C53.0422 43.5089 53.0422 36.4911 48.8689 31.9178L50.9111 29.8756C56.2111 35.58 56.2111 44.4222 50.9111 50.1267L48.8689 48.0822ZM27.6756 26.8889L25.6333 24.8467C33.6822 17.2067 46.32 17.2067 54.3689 24.8467L52.3267 26.8889C45.4044 20.3778 34.5956 20.3778 27.6756 26.8889ZM26.8889 27.6756C20.3756 34.5956 20.3756 45.4044 26.8889 52.3267L24.8467 54.3689C17.2067 46.32 17.2067 33.6822 24.8467 25.6333L26.8889 27.6756ZM27.6756 53.1111C34.5956 59.6244 45.4044 59.6244 52.3267 53.1111L54.3689 55.1533C46.3178 62.7933 33.6822 62.7933 25.6333 55.1533L27.6756 53.1111ZM53.1111 52.3244C59.6244 45.4044 59.6244 34.5956 53.1111 27.6733L55.1533 25.6311C62.7933 33.68 62.7933 46.3178 55.1533 54.3667L53.1111 52.3244ZM21.0711 21.8556L22.6422 23.4267C13.7867 32.6933 13.7867 47.3067 22.6422 56.5711L21.0711 58.1422C11.3489 48.0089 11.3489 31.9911 21.0711 21.8556ZM21.8556 58.9289L23.4267 57.3578C32.6933 66.2133 47.3067 66.2133 56.5733 57.3578L58.1444 58.9289C48.0089 68.6511 31.9911 68.6511 21.8556 58.9289ZM58.9289 58.1444L57.3578 56.5733C66.2133 47.3067 66.2133 32.6933 57.3578 23.4267L58.9289 21.8556C68.6511 31.9911 68.6511 48.0089 58.9289 58.1444Z" fill="black"/>
</svg>
