<svg width="80" height="80" viewBox="0 0 80 80" fill="none" xmlns="http://www.w3.org/2000/svg">
<path d="M15.2285 22.0778L37.3056 0L38.0923 0.786667L14.7796 24.1C14.9996 23.46 15.1529 22.7844 15.2285 22.0778ZM20.015 8.80889L28.037 0.786667L27.2504 0L19.2728 7.97778C19.5972 8.23333 19.8439 8.50889 20.015 8.80889ZM12.1019 21.5022C12.493 16.0089 13.333 14.1778 15.1907 11.9244C16.2707 10.6133 16.9706 9.08889 17.2573 7.98889C17.2062 7.96444 17.1529 7.94 17.0973 7.91556C15.124 7.04667 13.3974 6.46889 12.0797 6.20667C10.6686 5.92889 9.96194 5.85111 9.55307 6.30667C11.8797 9.29333 9.8175 13.4022 6.09983 13.7089C6.09983 13.7089 6.17983 14.5222 6.26205 15.7156L8.75309 14.4444C9.02642 14.3044 9.35974 14.4133 9.49974 14.6867C9.63973 14.96 9.53085 15.2956 9.25752 15.4333L6.3376 16.9244C6.35316 17.2178 6.36871 17.5222 6.38427 17.8333L8.34866 16.8289C8.62198 16.6889 8.95531 16.7978 9.0953 17.0711C9.2353 17.3444 9.12641 17.68 8.85309 17.8178L6.42649 19.0578C6.43538 19.3644 6.43982 19.6733 6.44427 19.9822L7.94422 19.2156C8.21755 19.0756 8.55087 19.1844 8.69087 19.4578C8.83087 19.7311 8.72198 20.0667 8.44865 20.2044L6.4376 21.2311C6.43538 21.3689 6.43093 21.5067 6.42649 21.6422C6.41982 21.8267 6.40649 22.0067 6.39093 22.1867L7.53757 21.6C7.81089 21.46 8.14422 21.5689 8.28421 21.8422C8.42421 22.1156 8.31532 22.4511 8.042 22.5889L6.19538 23.5311C5.6754 26.1156 4.45321 28.3022 4.27988 29.9756C4.27099 30.0533 4.27099 30.1289 4.27322 30.2022C9.09086 27.8956 11.8663 24.8156 12.1019 21.5022ZM13.2107 21.58C12.9441 25.3089 9.94861 28.7156 4.75765 31.2067C5.05097 31.4333 5.45985 31.5178 5.93317 31.3622C6.17316 31.2822 6.72648 31.0289 7.43757 30.6156L7.95534 31.2044L7.71312 30.4511C8.45088 30.0044 9.32196 29.4022 10.1842 28.6533L10.8841 29.2378L10.4264 28.4378C11.2441 27.7 12.0374 26.8333 12.6819 25.8444L13.3241 26.14L12.8196 25.6333C13.5352 24.48 14.0441 23.1667 14.1507 21.7089C14.2552 20.3022 14.4329 19.1178 14.6551 18.1067C15.544 14.6889 17.264 13.4044 18.0617 12.2444C19.275 10.4778 19.7728 9.54222 18.2284 8.60444C17.8506 9.85556 17.104 11.3489 16.0462 12.6311C14.4107 14.6178 13.5974 16.1489 13.2107 21.58ZM79.9978 22.1867L72.8624 29.3222C72.9669 32.54 72.4024 35.7756 71.1669 38.8L78.7423 31.2244L80 32.4822L46.3209 66.1622C37.3656 75.1178 22.7927 75.1178 13.8374 66.1622C12.0724 64.4001 10.6073 62.3613 9.49974 60.1267L1.25552 68.3711L0 67.1133L8.72865 58.3844C7.93533 56.3756 7.43535 54.2778 7.22869 52.1556L0.784422 58.6L0 57.8133L7.13536 50.6778C7.03092 47.46 7.59534 44.2222 8.83086 41.2L1.25552 48.7756L0 47.5156L33.6768 13.8378C42.6321 4.88222 57.2051 4.88222 66.1604 13.8378C67.9737 15.6511 69.4181 17.6933 70.498 19.8733L78.7423 11.6289L80 12.8867L71.2714 21.6156C72.0647 23.6244 72.5647 25.7222 72.7713 27.8444L79.2156 21.4L79.9978 22.1867ZM8.9242 48.8889L37.7723 20.04C43.8899 13.9222 53.8407 13.9222 59.9583 20.04C61.7683 21.8472 63.106 24.0718 63.8538 26.5178L69.1625 21.2089C68.1169 18.9343 66.6744 16.8642 64.9026 15.0956C56.6406 6.83333 43.1966 6.83333 34.9346 15.0956L15.0974 34.9333C11.2264 38.8044 9.16863 43.8111 8.9242 48.8889ZM56.7784 33.5911L62.9538 27.4156C62.3025 24.9214 60.9976 22.6462 59.1739 20.8244C53.4896 15.14 44.2432 15.14 38.5589 20.8244L20.8261 38.5578C17.5795 41.8044 16.1907 46.2156 16.6529 50.46L41.3322 25.78C44.8854 22.2267 50.6653 22.2267 54.2185 25.78C56.3429 27.9044 57.1962 30.8267 56.7784 33.5911ZM52.9607 37.4089L52.963 37.4067C55.8184 34.5467 55.8184 29.8956 52.9607 27.0378C50.1008 24.1778 45.4476 24.1778 42.5877 27.0378L27.0348 42.5911C24.1749 45.4511 24.1749 50.1044 27.0348 52.9644C29.8947 55.8244 34.5479 55.8244 37.4078 52.9644L52.9607 37.4089ZM17.044 52.5822C17.6953 55.0763 19.0001 57.3516 20.8239 59.1733C26.5082 64.8578 35.7546 64.8578 41.4389 59.1733L59.1717 41.44C62.4183 38.1933 63.8071 33.7822 63.3449 29.5378L38.6656 54.22C35.1124 57.7733 29.3325 57.7733 25.7793 54.22C23.6549 52.0956 22.8016 49.1733 23.2194 46.4089L17.044 52.5822ZM10.1108 57.0022L15.6685 51.4444C15.1818 48.4956 15.5351 45.4356 16.7329 42.6511L8.91309 50.4711C8.96737 52.6975 9.37156 54.9015 10.1108 57.0022ZM71.0736 31.1111L42.2255 59.96C36.1079 66.0778 26.1548 66.0778 20.0394 59.96C18.2295 58.1528 16.8917 55.9282 16.144 53.4822L10.8353 58.7911C11.8809 61.0657 13.3234 63.1358 15.0951 64.9044C23.3571 73.1667 36.8012 73.1667 45.0632 64.9044L64.9026 45.0667L64.9071 45.0622C68.7736 41.1933 70.8291 36.1867 71.0736 31.1111ZM71.0869 29.5267C71.0291 27.3133 70.6336 25.1067 69.8869 22.9978L64.3293 28.5556C64.816 31.5044 64.4627 34.5644 63.2649 37.3489L71.0869 29.5267ZM65.2182 55.9L41.9055 79.2133L42.6921 80L64.7693 57.9222C64.8449 57.2156 64.9982 56.54 65.2182 55.9ZM59.9828 71.1911L51.9608 79.2133L52.7474 80L60.725 72.0222C60.4005 71.7667 60.1539 71.4911 59.9828 71.1911ZM67.8959 58.4978C67.5048 63.9911 66.6648 65.8222 64.8071 68.0756C63.7271 69.3867 63.0271 70.9111 62.7405 72.0111C62.7916 72.0356 62.8449 72.06 62.9005 72.0844C64.8737 72.9533 66.6004 73.5311 67.9181 73.7933C69.3292 74.0711 70.0358 74.1489 70.4447 73.6933C68.1181 70.7067 70.1803 66.5978 73.8979 66.2911C73.8979 66.2911 73.8179 65.4778 73.7357 64.2844L71.2447 65.5556C70.9714 65.6956 70.638 65.5867 70.498 65.3133C70.4647 65.2484 70.4446 65.1776 70.4388 65.1049C70.4329 65.0322 70.4415 64.959 70.464 64.8897C70.4865 64.8203 70.5225 64.756 70.5699 64.7006C70.6173 64.6452 70.6752 64.5997 70.7402 64.5667L73.6602 63.0756C73.6446 62.7822 73.6291 62.4778 73.6135 62.1667L71.6491 63.1711C71.3758 63.3111 71.0425 63.2022 70.9025 62.9289C70.8692 62.864 70.849 62.7932 70.8432 62.7205C70.8373 62.6477 70.8459 62.5746 70.8684 62.5052C70.8909 62.4358 70.9269 62.3716 70.9743 62.3162C71.0218 62.2607 71.0796 62.2152 71.1447 62.1822L73.5713 60.9422C73.5624 60.6356 73.558 60.3267 73.5535 60.0178L72.0536 60.7844C71.7802 60.9244 71.4469 60.8156 71.3069 60.5422C71.2736 60.4773 71.2535 60.4065 71.2476 60.3338C71.2418 60.2611 71.2504 60.1879 71.2729 60.1186C71.2954 60.0492 71.3314 59.9849 71.3788 59.9295C71.4262 59.8741 71.4841 59.8285 71.5491 59.7956L73.5602 58.7689C73.5624 58.6311 73.5668 58.4933 73.5713 58.3578C73.5779 58.1733 73.5913 57.9933 73.6068 57.8133L72.4602 58.4C72.1869 58.54 71.8536 58.4311 71.7136 58.1578C71.6803 58.0929 71.6601 58.022 71.6543 57.9493C71.6484 57.8766 71.657 57.8035 71.6795 57.7341C71.702 57.6647 71.738 57.6005 71.7854 57.5451C71.8328 57.4896 71.8907 57.4441 71.9558 57.4111L73.8024 56.4689C74.3224 53.8844 75.5446 51.6978 75.7179 50.0244C75.7268 49.9467 75.7268 49.8711 75.7246 49.7978C70.9069 52.1044 68.1314 55.1844 67.8959 58.4978ZM66.787 58.42C67.0537 54.6911 70.0492 51.2844 75.2401 48.7933C74.9468 48.5667 74.5379 48.4822 74.0646 48.6378C73.8246 48.7178 73.2713 48.9711 72.5602 49.3844L72.0424 48.7956L72.2847 49.5489C71.4119 50.0775 70.5852 50.6789 69.8136 51.3467L69.1136 50.7622L69.5714 51.5622C68.7536 52.3 67.9603 53.1667 67.3159 54.1556L66.6737 53.86L67.1781 54.3667C66.4626 55.52 65.9537 56.8333 65.8471 58.2911C65.7426 59.6978 65.5648 60.8822 65.3426 61.8933C64.4538 65.3111 62.7338 66.5956 61.9361 67.7556C60.7228 69.5222 60.225 70.4578 61.7694 71.3956C62.1472 70.1444 62.8938 68.6511 63.9516 67.3689C65.5871 65.3822 66.4004 63.8511 66.787 58.42Z" fill="black"/>
</svg>
