<svg width="80" height="80" viewBox="0 0 80 80" fill="none" xmlns="http://www.w3.org/2000/svg">
<path d="M4.77458 47.7457L3.95678 46.748L5.44349 42.6108L6.60129 44.0233L4.77458 47.7457ZM16.8838 21.4749L7.21242 9.67602L15.1415 0L24.8129 11.7988L24.0262 12.7586L22.2484 10.5897L19.4617 13.9894L21.2395 16.1583L20.4528 17.1181L18.675 14.9492L15.8882 18.3489L17.666 20.5178L16.8838 21.4749ZM18.6972 6.25457L15.9104 9.65433L18.6794 13.0324L21.4662 9.63264L18.6972 6.25457ZM12.357 5.31924L15.126 8.6973L17.9127 5.29755L15.1438 1.92219L12.357 5.31924ZM11.5525 13.0541L14.3393 9.65433L11.5703 6.27626L8.78358 9.67602L11.5525 13.0541ZM15.106 17.3892L17.8927 13.9894L15.1238 10.6114L12.337 14.0111L15.106 17.3892ZM8.49913 54.2063L3.4901 48.0954L2.70341 49.0552L7.71244 55.1661L8.49913 54.2063ZM1.0367 51.0885C-0.345565 52.7748 -0.345565 55.5131 1.0367 57.1994C2.41896 58.8857 4.66346 58.8857 6.04572 57.1994L6.92797 56.1231L1.91894 50.0122L1.0367 51.0885ZM13.5815 29.7872L12.7192 26.6911C12.667 26.4999 12.5681 26.3328 12.4359 26.2122C12.3036 26.0915 12.1443 26.0231 11.9792 26.016C11.637 25.9997 11.3259 26.2356 11.1881 26.6206L5.92128 41.2797L7.18798 42.825L13.5815 29.7872ZM14.4682 28.7542L37.0933 1.15223L36.3066 0.19249L14.0682 27.3255L14.4682 28.7542ZM23.004 40.6642L22.7217 37.5627C22.7043 37.3544 22.6318 37.1586 22.5151 37.0051C22.3985 36.8515 22.244 36.7484 22.0751 36.7114L19.135 36.0661L10.3903 46.7344L11.9992 48.6973L23.004 40.6642ZM5.58349 48.7325L6.38129 49.7058L8.81913 46.7317L7.40798 45.0102L5.58349 48.7325ZM17.1216 30.7306L14.5793 30.3863L7.99467 43.8091L9.6036 45.772L18.3483 35.1037L17.8194 31.5169C17.7594 31.0994 17.4727 30.774 17.1216 30.7306ZM25.5152 41.2878L58.4138 1.15223L57.6272 0.19249L24.3418 40.8025L25.5152 41.2878ZM11.017 49.413L9.60582 47.6915L7.16798 50.6656L7.96578 51.6389L11.017 49.413ZM12.9859 51.8151L11.8281 50.4026L8.77691 52.6284L9.59471 53.6261L12.9859 51.8151ZM34.6887 25.7639L35.4754 24.8041L32.9109 21.6755L24.9818 31.3515L27.5463 34.4801L28.333 33.5204L26.5552 31.3515L29.3419 27.9517L31.1198 30.1206L31.9064 29.1609L30.1286 26.992L32.9154 23.5922L34.6887 25.7639ZM20.435 23.8905L19.6483 24.8502L22.2106 27.9761L30.1419 18.3001L27.5797 15.1742L26.793 16.1339L28.5708 18.3028L25.7841 21.7026L24.0062 19.5337L23.2195 20.4934L24.9974 22.6623L22.2106 26.0621L20.435 23.8905ZM26.0929 44.8041C26.246 44.7234 26.3753 44.588 26.4638 44.4156C26.5523 44.2432 26.5958 44.0421 26.5885 43.839C26.5827 43.6376 26.5266 43.4432 26.4277 43.2819C26.3288 43.1205 26.1918 42.9999 26.0352 42.9361L23.4973 41.8842L12.8104 49.6842L14.0771 51.2295L26.0929 44.8041ZM19.4283 34.7513L20.095 34.8977L47.7558 1.15223L46.9691 0.19249L19.3083 33.9379L19.4283 34.7513ZM59.5628 56.1095L60.3495 55.1498L57.7872 52.0239L49.8558 61.6999L52.4181 64.8258L53.2048 63.8661L51.427 61.6972L54.2137 58.2974L55.9916 60.4663L56.7782 59.5066L55.0004 57.3377L57.7872 53.9379L59.5628 56.1095ZM65.5318 51.2458L42.9045 78.8478L43.6912 79.8075L65.9296 52.6772L65.5318 51.2458ZM45.3113 54.2361L44.5246 55.1959L47.0891 58.3245L55.0182 48.6485L52.4537 45.5199L51.667 46.4796L53.4448 48.6485L50.6581 52.0483L48.8802 49.8794L48.0936 50.8391L49.8714 53.008L47.0846 56.4077L45.3113 54.2361ZM63.1162 58.5251L72.7876 70.324L64.8585 80L55.1871 68.2012L55.9738 67.2414L57.7516 69.4103L60.5384 66.0106L58.7605 63.8417L59.5472 62.8819L61.325 65.0508L64.1118 61.6511L62.334 59.4822L63.1162 58.5251ZM61.3028 73.7454L64.0896 70.3457L61.3206 66.9676L58.5339 70.3673L61.3028 73.7454ZM67.643 74.6835L64.874 71.3054L62.0873 74.7052L64.8562 78.0805L67.643 74.6835ZM68.4475 66.9486L65.6607 70.3484L68.4275 73.7237L71.2142 70.324L68.4475 66.9486ZM64.894 62.6108L62.1073 66.0106L64.8763 69.3886L67.663 65.9889L64.894 62.6108ZM60.5717 45.2487L59.905 45.1023L32.2442 78.8478L33.0309 79.8075L60.6917 46.0621L60.5717 45.2487ZM66.4185 50.2155L67.2808 53.3116C67.3897 53.7048 67.6808 53.9704 68.0208 53.9867C68.363 54.003 68.6741 53.7671 68.8119 53.3821L74.0787 38.7231L72.812 37.1777L66.4185 50.2155ZM71.5009 25.7937L76.5099 31.9046L77.2944 30.9448L72.2853 24.8339L71.5009 25.7937ZM78.9633 22.8006C77.5811 21.1143 75.3365 21.1143 73.9543 22.8006L73.072 23.8769L78.0811 29.9878L78.9633 28.9115C80.3456 27.2224 80.3456 24.4869 78.9633 22.8006ZM73.4009 35.9794L74.5587 37.3919L76.0454 33.2547L75.2277 32.257L73.4009 35.9794ZM36.6621 45.6039L8.62802 79.8075L7.37021 78.273L35.4065 44.0694L30.3108 37.8528L31.0975 36.893L32.8754 39.0619L35.6621 35.6622L33.8843 33.4933L34.671 32.5335L36.4488 34.7024L39.2355 31.3027L37.4577 29.1338L38.2444 28.1741L43.3401 34.3907L71.3764 0.187069L72.6342 1.72157L44.5935 35.9306L49.6892 42.1472L48.9025 43.1069L47.1246 40.938L44.3379 44.3378L46.1157 46.5067L45.329 47.4664L43.5512 45.2975L40.7645 48.6973L42.5423 50.8662L41.76 51.8205L36.6621 45.6039ZM42.7667 44.3351L40.2333 41.2444L37.4466 44.6442L39.98 47.7348L42.7667 44.3351ZM41.02 40.2874L43.5534 43.3781L46.3402 39.9783L43.8068 36.8876L41.02 40.2874ZM37.231 35.6649L39.7622 38.7529L42.549 35.3531L40.0178 32.2651L37.231 35.6649ZM36.191 43.1124L38.9777 39.7126L36.4466 36.6246L33.6598 40.0244L36.191 43.1124ZM57.9227 43.2886L60.8628 43.9338L69.6075 33.2656L67.9986 31.3027L56.996 39.3358L57.2783 42.4373C57.2948 42.6456 57.3668 42.8415 57.4831 42.9952C57.5995 43.1489 57.7539 43.2519 57.9227 43.2886ZM54.4849 38.7122L21.5839 78.8478L22.3706 79.8075L55.6582 39.1975L54.4849 38.7122ZM53.9048 35.1959C53.7518 35.2766 53.6225 35.412 53.534 35.5844C53.4455 35.7568 53.402 35.9579 53.4093 36.161C53.4151 36.3624 53.4712 36.5568 53.5701 36.7181C53.669 36.8795 53.8059 37.0001 53.9626 37.0638L56.5005 38.1158L67.1874 30.3158L65.9207 28.7705L53.9048 35.1959ZM67.0141 28.1876L68.1719 29.6001L71.2231 27.3743L70.4053 26.3766L67.0141 28.1876ZM62.8762 49.2693L65.4185 49.6137L72.0031 36.1909L70.3942 34.228L61.6495 44.8963L62.1784 48.4831C62.2384 48.9006 62.5273 49.226 62.8762 49.2693ZM68.9808 30.587L70.392 32.3085L72.8298 29.3344L72.032 28.3611L68.9808 30.587ZM74.4165 31.2675L73.6187 30.2942L71.1809 33.2683L72.592 34.9898L74.4165 31.2675Z" fill="black"/>
</svg>
