<svg width="80" height="80" viewBox="0 0 80 80" fill="none" xmlns="http://www.w3.org/2000/svg">
<path d="M74.885 28.6044C70.0095 23.7289 62.9473 22.34 56.8252 24.4333L72.6428 8.61555L71.3851 7.35778L48.8963 29.8467H51.4119C57.5429 23.7333 67.5029 23.7378 73.6273 29.86C79.7561 35.9889 79.7561 45.9644 73.6273 52.0933L63.4962 62.2356L58.6407 57.38L70.5695 45.4511L61.6496 36.5311L61.3496 37.8022L68.9984 45.4511L57.8563 56.5933L51.3941 50.1311H48.8786L71.3873 72.64L72.645 71.3822L64.754 63.4911L74.885 53.3489C81.705 46.5289 81.705 35.4267 74.885 28.6044ZM28.612 50.1333L28.6031 50.1422C22.4743 56.2667 12.5032 56.2667 6.37662 50.1378C0.247777 44.0089 0.247777 34.0356 6.37662 27.9044L16.5077 17.7622L21.3632 22.6178L9.43438 34.5467L18.5743 43.6867L18.8699 42.4111L11.0055 34.5467L22.1476 23.4044L28.5898 29.8467H31.1053L8.61661 7.35778L7.35884 8.61555L15.2499 16.5067L5.11663 26.6489C-1.70554 33.4711 -1.70554 44.5733 5.11663 51.3956C9.99215 56.2711 17.0543 57.66 23.1765 55.5667L7.35884 71.3845L8.61661 72.6422L31.1253 50.1333H28.612ZM60.2429 37.6444L57.4585 39.8867L59.2785 42.0756L58.2518 46.4022L54.8007 49.0222H50.0763L51.0652 44.82H52.0719L52.7141 42.0556H49.9052L50.9363 37.5978H53.7185L54.3096 35.1644H52.1674L53.143 30.96H59.0163L61.2051 33.5889L60.2429 37.6444ZM48.4452 44.82H49.7119L48.723 49.0222H45.2186L31.5987 35.18H30.3387L31.292 30.96H34.8164L48.4452 44.82ZM25.9832 44.8356H28.1276L27.1498 49.0222H21.2699L19.0899 46.3756L20.0765 42.1178L22.8787 39.8689L21.0587 37.68L22.0521 33.5956L25.4743 30.9578H29.9409L28.952 35.2133H28.2187L27.6209 37.6844H30.4298L29.3987 42.1444H26.6165L25.9832 44.8356ZM35.312 40.8933L38.7675 44.3689L34.0875 49.0222H28.4876L29.4653 44.8356H31.3142L35.312 40.8933ZM44.6986 39.08L41.2408 35.6244L45.9519 30.96H51.7896L50.8119 35.1644H48.7141L44.6986 39.08ZM34.9986 11.0711C34.8275 8.11778 33.8031 5.32445 32.0476 2.98C33.9564 1.28889 36.4097 0.197778 39.1119 0V11.0711H34.9986ZM47.9541 2.98C46.0452 1.28889 43.5919 0.197778 40.8897 0V11.0711H45.003C45.1741 8.11778 46.1986 5.32667 47.9541 2.98ZM33.2164 12.8489H28.0365C28.2254 15.4267 29.2276 17.7778 30.7898 19.6467C32.2142 17.6556 33.052 15.3178 33.2164 12.8489ZM33.2164 11.0711C33.0542 8.60222 32.2142 6.26445 30.7898 4.27333C29.1814 6.19417 28.2181 8.57239 28.0365 11.0711H33.2164ZM45.003 12.8489H40.8897V23.92C43.5919 23.7222 46.0452 22.6311 47.9541 20.94C46.1986 18.5956 45.1741 15.8022 45.003 12.8489ZM46.7875 11.0711H51.9674C51.7858 8.57239 50.8225 6.19417 49.2141 4.27333C47.7897 6.26445 46.9497 8.60222 46.7875 11.0711ZM46.7875 12.8489C46.9497 15.3178 47.7897 17.6556 49.2141 19.6467C50.8216 17.7253 51.7847 15.3474 51.9674 12.8489H46.7875ZM39.1119 12.8489H34.9986C34.8275 15.8022 33.8031 18.5956 32.0476 20.94C33.9587 22.6311 36.4097 23.7222 39.1119 23.92V12.8489ZM40.8897 68.9289V80C43.5919 79.8022 46.0452 78.7111 47.9541 77.02C46.1963 74.6733 45.1741 71.8822 45.003 68.9289H40.8897ZM32.0476 77.02C33.9564 78.7111 36.4097 79.8022 39.1119 80V68.9289H34.9986C34.8275 71.8822 33.8031 74.6733 32.0476 77.02ZM46.7852 67.1511H51.9652C51.7835 64.6524 50.8203 62.2742 49.2119 60.3533C47.7874 62.3444 46.9497 64.6822 46.7852 67.1511ZM46.7852 68.9289C46.9474 71.3978 47.7874 73.7355 49.2119 75.7267C50.8203 73.8058 51.7835 71.4276 51.9652 68.9289H46.7852ZM34.9986 67.1511H39.1119V56.08C36.4097 56.2778 33.9564 57.3689 32.0476 59.06C33.8031 61.4044 34.8275 64.1978 34.9986 67.1511ZM33.2142 68.9289H28.0342C28.2231 71.5067 29.2253 73.8578 30.7876 75.7267C32.212 73.7355 33.052 71.3978 33.2142 68.9289ZM33.2142 67.1511C33.052 64.6822 32.212 62.3444 30.7876 60.3533C29.1801 62.2747 28.2169 64.6526 28.0342 67.1511H33.2142ZM40.8897 67.1511H45.003C45.1741 64.1978 46.1986 61.4044 47.9541 59.06C46.043 57.3689 43.5919 56.2778 40.8897 56.08V67.1511Z" fill="black"/>
</svg>
