<svg width="28" height="29" viewBox="0 0 28 29" fill="none" xmlns="http://www.w3.org/2000/svg">
<path d="M28 14.2407C28 21.9727 21.732 28.2407 14 28.2407C6.26801 28.2407 0 21.9727 0 14.2407C0 6.50874 6.26801 0.240723 14 0.240723C21.732 0.240723 28 6.50874 28 14.2407Z" fill="url(#paint0_linear_2442_573)"/>
<path d="M11.76 18.4407V27.9607C11.76 28.1154 11.8854 28.2407 12.04 28.2407H15.96C16.1146 28.2407 16.24 28.1154 16.24 27.9607V18.4407C16.24 18.2861 16.3654 18.1607 16.52 18.1607H19.32C19.4746 18.1607 19.6 18.0354 19.6 17.8807V14.5207C19.6 14.3661 19.4746 14.2407 19.32 14.2407H16.52C16.3654 14.2407 16.24 14.1155 16.24 13.9609V11.4407C16.24 10.3207 17.64 9.76072 18.2 9.76072H19.88C20.0346 9.76072 20.16 9.63536 20.16 9.48072V6.12072C20.16 5.96608 20.0347 5.84072 19.88 5.84072H16.24C13.552 5.84072 11.76 8.64072 11.76 10.3207V13.9607C11.76 14.1154 11.6346 14.2407 11.48 14.2407H8.68C8.52536 14.2407 8.4 14.3661 8.4 14.5207V17.8807C8.4 18.0354 8.52536 18.1607 8.68 18.1607H11.48C11.6346 18.1607 11.76 18.2861 11.76 18.4407Z" fill="black"/>
<defs>
<linearGradient id="paint0_linear_2442_573" x1="14" y1="0.240723" x2="14" y2="28.2407" gradientUnits="userSpaceOnUse">
<stop stop-color="white"/>
<stop offset="1" stop-color="white"/>
</linearGradient>
</defs>
</svg>
