<svg width="47" height="47" viewBox="0 0 47 47" fill="none" xmlns="http://www.w3.org/2000/svg">
<rect x="1" y="1" width="45" height="45" stroke="black" stroke-linejoin="bevel"/>
<path fill-rule="evenodd" clip-rule="evenodd" d="M21.0438 15.7187C21.9877 14.3001 21.7504 12.4043 20.4861 11.2621C19.2218 10.1199 17.3117 10.0758 15.996 11.1583C14.6803 12.2409 14.3557 14.1238 15.233 15.5844C16.1104 17.045 17.925 17.6429 19.4988 16.9899C20.1277 16.7275 20.6652 16.2853 21.0438 15.7187Z" stroke="black" stroke-width="1.5" stroke-linecap="round" stroke-linejoin="round"/>
<path fill-rule="evenodd" clip-rule="evenodd" d="M21.0438 35.0593C21.9877 33.6407 21.7504 31.7449 20.4861 30.6027C19.2218 29.4605 17.3117 29.4163 15.996 30.4989C14.6803 31.5815 14.3557 33.4644 15.233 34.925C16.1104 36.3856 17.925 36.9835 19.4988 36.3305C20.1277 36.0681 20.6652 35.6259 21.0438 35.0593V35.0593Z" stroke="black" stroke-width="1.5" stroke-linecap="round" stroke-linejoin="round"/>
<path fill-rule="evenodd" clip-rule="evenodd" d="M25.9562 25.3881C25.0123 23.9696 25.2496 22.0738 26.5139 20.9315C27.7782 19.7893 29.6883 19.7452 31.004 20.8278C32.3198 21.9104 32.6443 23.7932 31.767 25.2538C30.8896 26.7145 29.075 27.3124 27.5012 26.6594C26.8723 26.397 26.3348 25.9547 25.9562 25.3881V25.3881Z" stroke="black" stroke-width="1.5" stroke-linecap="round" stroke-linejoin="round"/>
<path d="M21.625 13.0488C21.2108 13.0488 20.875 13.3846 20.875 13.7988C20.875 14.213 21.2108 14.5488 21.625 14.5488V13.0488ZM36.625 14.5488C37.0392 14.5488 37.375 14.213 37.375 13.7988C37.375 13.3846 37.0392 13.0488 36.625 13.0488V14.5488ZM14.7381 14.5488C15.1523 14.5488 15.4881 14.213 15.4881 13.7988C15.4881 13.3846 15.1523 13.0488 14.7381 13.0488V14.5488ZM10.375 13.0488C9.96079 13.0488 9.625 13.3846 9.625 13.7988C9.625 14.213 9.96079 14.5488 10.375 14.5488V13.0488ZM21.625 32.3913C21.2108 32.3913 20.875 32.7271 20.875 33.1413C20.875 33.5555 21.2108 33.8913 21.625 33.8913V32.3913ZM36.625 33.8913C37.0392 33.8913 37.375 33.5555 37.375 33.1413C37.375 32.7271 37.0392 32.3913 36.625 32.3913V33.8913ZM14.7381 33.8913C15.1523 33.8913 15.4881 33.5555 15.4881 33.1413C15.4881 32.7271 15.1523 32.3913 14.7381 32.3913V33.8913ZM10.375 32.3913C9.96079 32.3913 9.625 32.7271 9.625 33.1413C9.625 33.5555 9.96079 33.8913 10.375 33.8913V32.3913ZM25.375 24.2201C25.7892 24.2201 26.125 23.8843 26.125 23.4701C26.125 23.0559 25.7892 22.7201 25.375 22.7201V24.2201ZM10.375 22.7201C9.96079 22.7201 9.625 23.0559 9.625 23.4701C9.625 23.8843 9.96079 24.2201 10.375 24.2201V22.7201ZM32.2619 22.7201C31.8477 22.7201 31.5119 23.0559 31.5119 23.4701C31.5119 23.8843 31.8477 24.2201 32.2619 24.2201V22.7201ZM36.625 24.2201C37.0392 24.2201 37.375 23.8843 37.375 23.4701C37.375 23.0559 37.0392 22.7201 36.625 22.7201V24.2201ZM21.625 14.5488H36.625V13.0488H21.625V14.5488ZM14.7381 13.0488H10.375V14.5488H14.7381V13.0488ZM21.625 33.8913H36.625V32.3913H21.625V33.8913ZM14.7381 32.3913H10.375V33.8913H14.7381V32.3913ZM25.375 22.7201H10.375V24.2201H25.375V22.7201ZM32.2619 24.2201H36.625V22.7201H32.2619V24.2201Z" fill="black"/>
</svg>
