<svg width="142" height="142" viewBox="0 0 142 142" fill="none" xmlns="http://www.w3.org/2000/svg">
<rect x="1" y="1" width="140" height="140" stroke="black" stroke-linejoin="bevel"/>
<path fill-rule="evenodd" clip-rule="evenodd" d="M63.3587 46.7915C66.2951 42.3783 65.5571 36.4802 61.6237 32.9266C57.6902 29.3731 51.7477 29.2358 47.6543 32.6038C43.561 35.9719 42.5513 41.8296 45.2808 46.3738C48.0103 50.918 53.6558 52.7781 58.552 50.7465C60.5086 49.9301 62.1807 48.5543 63.3587 46.7915Z" stroke="black" stroke-width="1.5" stroke-linecap="round" stroke-linejoin="round"/>
<path fill-rule="evenodd" clip-rule="evenodd" d="M63.3587 106.962C66.2951 102.549 65.5571 96.6511 61.6237 93.0975C57.6902 89.544 51.7477 89.4067 47.6543 92.7747C43.561 96.1428 42.5513 102.001 45.2808 106.545C48.0103 111.089 53.6558 112.949 58.552 110.917C60.5086 110.101 62.1807 108.725 63.3587 106.962V106.962Z" stroke="black" stroke-width="1.5" stroke-linecap="round" stroke-linejoin="round"/>
<path fill-rule="evenodd" clip-rule="evenodd" d="M78.6414 76.8738C75.705 72.4606 76.443 66.5625 80.3764 63.0089C84.3099 59.4553 90.2524 59.318 94.3458 62.6861C98.4391 66.0542 99.4488 71.9119 96.7193 76.4561C93.9898 81.0002 88.3443 82.8604 83.4481 80.8288C81.4915 80.0124 79.8194 78.6366 78.6414 76.8738V76.8738Z" stroke="black" stroke-width="1.5" stroke-linecap="round" stroke-linejoin="round"/>
<path d="M65.167 40.0684C64.7528 40.0684 64.417 40.4041 64.417 40.8184C64.417 41.2326 64.7528 41.5684 65.167 41.5684V40.0684ZM111.834 41.5684C112.248 41.5684 112.584 41.2326 112.584 40.8184C112.584 40.4041 112.248 40.0684 111.834 40.0684V41.5684ZM43.7411 41.5684C44.1554 41.5684 44.4911 41.2326 44.4911 40.8184C44.4911 40.4041 44.1554 40.0684 43.7411 40.0684V41.5684ZM30.167 40.0684C29.7528 40.0684 29.417 40.4041 29.417 40.8184C29.417 41.2326 29.7528 41.5684 30.167 41.5684V40.0684ZM65.167 100.245C64.7528 100.245 64.417 100.581 64.417 100.995C64.417 101.409 64.7528 101.745 65.167 101.745V100.245ZM111.834 101.745C112.248 101.745 112.584 101.409 112.584 100.995C112.584 100.581 112.248 100.245 111.834 100.245V101.745ZM43.7411 101.745C44.1554 101.745 44.4911 101.409 44.4911 100.995C44.4911 100.581 44.1554 100.245 43.7411 100.245V101.745ZM30.167 100.245C29.7528 100.245 29.417 100.581 29.417 100.995C29.417 101.409 29.7528 101.745 30.167 101.745V100.245ZM76.8336 71.6567C77.2478 71.6567 77.5836 71.3209 77.5836 70.9067C77.5836 70.4925 77.2478 70.1567 76.8336 70.1567V71.6567ZM30.167 70.1567C29.7528 70.1567 29.417 70.4925 29.417 70.9067C29.417 71.3209 29.7528 71.6567 30.167 71.6567V70.1567ZM98.2594 70.1567C97.8452 70.1567 97.5094 70.4925 97.5094 70.9067C97.5094 71.3209 97.8452 71.6567 98.2594 71.6567V70.1567ZM111.834 71.6567C112.248 71.6567 112.584 71.3209 112.584 70.9067C112.584 70.4925 112.248 70.1567 111.834 70.1567V71.6567ZM65.167 41.5684H111.834V40.0684H65.167V41.5684ZM43.7411 40.0684H30.167V41.5684H43.7411V40.0684ZM65.167 101.745H111.834V100.245H65.167V101.745ZM43.7411 100.245H30.167V101.745H43.7411V100.245ZM76.8336 70.1567H30.167V71.6567H76.8336V70.1567ZM98.2594 71.6567H111.834V70.1567H98.2594V71.6567Z" fill="black"/>
</svg>
