<svg width="28" height="29" viewBox="0 0 28 29" fill="none" xmlns="http://www.w3.org/2000/svg">
<g clip-path="url(#clip0_2442_577)">
<path fill-rule="evenodd" clip-rule="evenodd" d="M8.22818 0.324723C9.72109 0.255995 10.1971 0.240723 14 0.240723C17.8029 0.240723 18.2789 0.257268 19.7705 0.324723C21.2622 0.392177 22.2804 0.630177 23.1713 0.975086C24.1042 1.32763 24.9505 1.87872 25.6505 2.59145C26.3633 3.29018 26.9131 4.13527 27.2644 5.06945C27.6105 5.96036 27.8473 6.97854 27.916 8.46763C27.9847 9.96309 28 10.4391 28 14.2407C28 18.0436 27.9835 18.5196 27.916 20.0125C27.8485 21.5016 27.6105 22.5198 27.2644 23.4107C26.9131 24.345 26.3624 25.1915 25.6505 25.8913C24.9505 26.604 24.1042 27.1538 23.1713 27.5051C22.2804 27.8513 21.2622 28.088 19.7731 28.1567C18.2789 28.2254 17.8029 28.2407 14 28.2407C10.1971 28.2407 9.72109 28.2242 8.22818 28.1567C6.73909 28.0893 5.72091 27.8513 4.83 27.5051C3.89572 27.1538 3.04923 26.603 2.34945 25.8913C1.63721 25.1921 1.08604 24.346 0.734364 23.412C0.389455 22.5211 0.152727 21.5029 0.084 20.0138C0.0152727 18.5184 0 18.0424 0 14.2407C0 10.4378 0.0165454 9.96181 0.084 8.47018C0.151455 6.97854 0.389455 5.96036 0.734364 5.06945C1.08656 4.13537 1.63815 3.2893 2.35073 2.59018C3.04951 1.87809 3.89515 1.32692 4.82873 0.975086C5.71964 0.630177 6.73782 0.39345 8.22691 0.324723H8.22818ZM19.6573 2.84472C18.1809 2.77727 17.738 2.76327 14 2.76327C10.262 2.76327 9.81909 2.77727 8.34273 2.84472C6.97709 2.90709 6.23636 3.1349 5.74255 3.32709C5.08964 3.58163 4.62255 3.88327 4.13255 4.37327C3.66806 4.82515 3.31059 5.37526 3.08636 5.98327C2.89418 6.47709 2.66636 7.21781 2.604 8.58345C2.53655 10.0598 2.52255 10.5027 2.52255 14.2407C2.52255 17.9787 2.53655 18.4216 2.604 19.898C2.66636 21.2636 2.89418 22.0044 3.08636 22.4982C3.31036 23.1053 3.668 23.6564 4.13255 24.1082C4.58436 24.5727 5.13545 24.9304 5.74255 25.1544C6.23636 25.3465 6.97709 25.5744 8.34273 25.6367C9.81909 25.7042 10.2607 25.7182 14 25.7182C17.7393 25.7182 18.1809 25.7042 19.6573 25.6367C21.0229 25.5744 21.7636 25.3465 22.2575 25.1544C22.9104 24.8998 23.3775 24.5982 23.8675 24.1082C24.332 23.6564 24.6896 23.1053 24.9136 22.4982C25.1058 22.0044 25.3336 21.2636 25.396 19.898C25.4635 18.4216 25.4775 17.9787 25.4775 14.2407C25.4775 10.5027 25.4635 10.0598 25.396 8.58345C25.3336 7.21781 25.1058 6.47709 24.9136 5.98327C24.6591 5.33036 24.3575 4.86327 23.8675 4.37327C23.4155 3.90881 22.8654 3.55135 22.2575 3.32709C21.7636 3.1349 21.0229 2.90709 19.6573 2.84472ZM12.2118 18.5565C13.2105 18.9723 14.3225 19.0284 15.3579 18.7153C16.3933 18.4022 17.288 17.7393 17.889 16.8399C18.49 15.9405 18.7601 14.8604 18.6532 13.7839C18.5462 12.7075 18.0689 11.7016 17.3027 10.938C16.8143 10.4499 16.2237 10.0761 15.5735 9.84364C14.9233 9.61115 14.2296 9.52573 13.5424 9.59351C12.8553 9.66128 12.1916 9.88058 11.5994 10.2356C11.0071 10.5906 10.5009 11.0726 10.1173 11.6467C9.73364 12.2209 9.48206 12.8729 9.38066 13.5559C9.27925 14.239 9.33056 14.936 9.53087 15.5968C9.73118 16.2577 10.0755 16.8659 10.5391 17.3776C11.0027 17.8894 11.574 18.292 12.2118 18.5565ZM8.91164 9.15236C9.57985 8.48415 10.3731 7.95409 11.2462 7.59245C12.1193 7.23082 13.055 7.04469 14 7.04469C14.945 7.04469 15.8807 7.23082 16.7538 7.59245C17.6269 7.95409 18.4201 8.48415 19.0884 9.15236C19.7566 9.82057 20.2866 10.6139 20.6483 11.4869C21.0099 12.36 21.196 13.2957 21.196 14.2407C21.196 15.1857 21.0099 16.1215 20.6483 16.9945C20.2866 17.8676 19.7566 18.6609 19.0884 19.3291C17.7388 20.6786 15.9085 21.4368 14 21.4368C12.0915 21.4368 10.2612 20.6786 8.91164 19.3291C7.56212 17.9796 6.80397 16.1492 6.80397 14.2407C6.80397 12.3322 7.56212 10.5019 8.91164 9.15236ZM22.792 8.11636C22.9576 7.96016 23.0902 7.77232 23.1818 7.56396C23.2735 7.35561 23.3225 7.13097 23.3258 6.90336C23.3291 6.67575 23.2867 6.44978 23.2012 6.23884C23.1156 6.02791 22.9885 5.83628 22.8276 5.67532C22.6666 5.51435 22.475 5.38732 22.2641 5.30174C22.0531 5.21617 21.8272 5.17378 21.5995 5.1771C21.3719 5.18042 21.1473 5.22937 20.9389 5.32106C20.7306 5.41275 20.5427 5.54532 20.3865 5.7109C20.0828 6.03294 19.9164 6.46069 19.9229 6.90336C19.9293 7.34603 20.1081 7.76875 20.4211 8.08179C20.7342 8.39484 21.1569 8.57356 21.5995 8.58001C22.0422 8.58646 22.47 8.42015 22.792 8.11636Z" fill="white"/>
</g>
<defs>
<clipPath id="clip0_2442_577">
<rect width="28" height="28" fill="white" transform="translate(0 0.240723)"/>
</clipPath>
</defs>
</svg>
