<svg width="28" height="29" viewBox="0 0 28 29" fill="none" xmlns="http://www.w3.org/2000/svg">
<path d="M0 4.16072C0 1.99577 1.75504 0.240723 3.92 0.240723H24.08C26.245 0.240723 28 1.99577 28 4.16072V24.3207C28 26.4857 26.245 28.2407 24.08 28.2407H3.92C1.75504 28.2407 0 26.4857 0 24.3207V4.16072Z" fill="white"/>
<path d="M10.08 7.80072C10.08 9.19248 8.95176 10.3207 7.56 10.3207C6.16824 10.3207 5.04 9.19248 5.04 7.80072C5.04 6.40897 6.16824 5.28072 7.56 5.28072C8.95176 5.28072 10.08 6.40897 10.08 7.80072Z" fill="black"/>
<path d="M5.6 12.0007C5.6 11.6914 5.85072 11.4407 6.16 11.4407H8.96C9.26928 11.4407 9.52 11.6914 9.52 12.0007V22.6407C9.52 22.95 9.26928 23.2007 8.96 23.2007H6.16C5.85072 23.2007 5.6 22.95 5.6 22.6407V12.0007Z" fill="black"/>
<path d="M11.76 11.4407L14.28 11.4407C14.5893 11.4407 14.84 11.6915 14.84 12.0007V12.5607C15.96 11.1607 18.0133 11.0674 19.04 11.1607C22.2406 11.4517 22.7733 14.7074 22.68 16.4807L22.68 22.6407C22.68 22.95 22.4293 23.2007 22.12 23.2007L19.6 23.2007C19.2907 23.2007 19.04 22.95 19.04 22.6407V16.4807C18.9467 15.7341 18.424 14.2407 17.08 14.2407C15.736 14.2407 14.9333 15.9207 14.84 16.4807V22.6407C14.84 22.95 14.5893 23.2007 14.28 23.2007L11.76 23.2007C11.4507 23.2007 11.2 22.95 11.2 22.6407V12.0007C11.2 11.6914 11.4507 11.4407 11.76 11.4407Z" fill="black"/>
</svg>
