<svg width="80" height="80" viewBox="0 0 80 80" fill="none" xmlns="http://www.w3.org/2000/svg">
<path d="M49.6333 30.3667C49.4222 30.1556 49.2022 29.9556 48.9756 29.7689L59.0089 19.7356L60.2667 20.9933L50.2333 31.0267C50.0444 30.7978 49.8444 30.5778 49.6333 30.3667ZM2.44 3.71333C2.44 1.91778 2.90222 0 4.20222 0H75.7978C77.0978 0 77.56 1.91778 77.56 3.71333C77.56 5.50889 77.0978 7.42667 75.7978 7.42667H73.8311L68.0822 13.1756L75.4378 20.5311L74.18 21.7889L59.8178 7.42667H20.18L5.81778 21.7889L4.56 20.5311L11.9156 13.1756L6.16667 7.42667H4.2C2.90222 7.42444 2.44 5.50667 2.44 3.71333ZM17.6667 7.42445H8.68222L13.1733 11.9156L17.6667 7.42445ZM71.3178 7.42445H62.3333L66.8267 11.9156L71.3178 7.42445ZM3.55111 3.71333C3.55111 5.40222 4.01333 6.31556 4.20222 6.31556H75.7978C75.9867 6.31556 76.4489 5.40444 76.4489 3.71333C76.4489 2.02222 75.9867 1.11111 75.7978 1.11111H4.20222C4.01333 1.11111 3.55111 2.02222 3.55111 3.71333ZM80 23.2933V16.3333H72.8133L74.5911 18.1111H78.2222V23.2933H78.5556V56.7089H78.2222V61.8911H74.5911L72.8133 63.6689H80V56.7089H79.6667V23.2933H80ZM18.5467 10.6289H61.4511L69.3689 18.5467V61.4511L61.4511 69.3689H18.5467L10.6289 61.4511V18.5467L18.5467 10.6289ZM17.2222 17.2222V62.7778H62.7778V17.2222H17.2222ZM5.40889 61.8889H1.77778V56.7067H1.44444V23.2933H1.77778V18.1111H5.40889L7.18667 16.3333H0V23.2933H0.333333V56.7089H0V63.6689H7.18667L5.40889 61.8889ZM31.0244 50.2333C30.7978 50.0444 30.5778 49.8467 30.3667 49.6356C30.1556 49.4244 29.9556 49.2022 29.7689 48.9756L19.7356 59.0089L20.9933 60.2667L31.0244 50.2333ZM77.56 76.2867C77.56 78.0822 77.0978 80 75.7978 80H4.20222C2.90222 80 2.44 78.0822 2.44 76.2867C2.44 74.4911 2.90222 72.5733 4.20222 72.5733H6.16889L11.9178 66.8244L4.56222 59.4689L5.82 58.2111L20.1822 72.5733H59.82L74.1822 58.2111L75.44 59.4689L68.0844 66.8244L73.8333 72.5733H75.8C77.0978 72.5756 77.56 74.4933 77.56 76.2867ZM62.3333 72.5756H71.3178L66.8267 68.0844L62.3333 72.5756ZM8.68222 72.5756H17.6667L13.1733 68.0844L8.68222 72.5756ZM76.4489 76.2867C76.4489 74.5978 75.9867 73.6844 75.7978 73.6844H4.20222C4.01333 73.6844 3.55111 74.5956 3.55111 76.2867C3.55111 77.9778 4.01333 78.8889 4.20222 78.8889H75.7978C75.9867 78.8889 76.4489 77.9778 76.4489 76.2867ZM37.0444 51.2911C40.4444 51.2911 43.3667 49.2533 44.6644 46.3356C44.1089 46.4378 43.5378 46.4933 42.9511 46.4933C42.8244 46.4933 42.6978 46.4889 42.5711 46.4844C41.4067 48.3067 39.3644 49.5178 37.04 49.5178C33.4156 49.5178 30.48 46.58 30.48 42.9578C30.48 40.6333 31.6889 38.5933 33.5133 37.4267C33.5089 37.3 33.5044 37.1756 33.5044 37.0467C33.5044 36.4622 33.56 35.8911 33.6622 35.3356C30.7444 36.6333 28.7089 39.5556 28.7089 42.9556C28.7089 47.5578 32.4422 51.2911 37.0444 51.2911ZM43.5844 42.4578C44.2 42.3867 44.7844 42.2133 45.32 41.9533C44.8644 38.1489 41.8467 35.1333 38.0422 34.68C37.7785 35.2263 37.608 35.813 37.5378 36.4156C40.7667 36.6556 43.3422 39.2311 43.5844 42.4578ZM34.6156 37.0444C34.6156 32.44 38.3489 28.7089 42.9511 28.7089C47.5533 28.7089 51.2867 32.4422 51.2867 37.0444C51.2867 41.6489 47.5533 45.38 42.9511 45.38C38.3489 45.38 34.6156 41.6489 34.6156 37.0444ZM36.3889 37.0467C36.3889 40.6711 39.3267 43.6067 42.9489 43.6067C46.5733 43.6067 49.5089 40.6689 49.5089 37.0467C49.5089 33.4244 46.5711 30.4867 42.9489 30.4867C39.3267 30.4844 36.3889 33.4222 36.3889 37.0467Z" fill="black"/>
</svg>
