<svg width="35" height="35" viewBox="0 0 35 35" fill="none" xmlns="http://www.w3.org/2000/svg">
<circle cx="17.5" cy="17.5" r="17.5" fill="white"/>
<path fill-rule="evenodd" clip-rule="evenodd" d="M8.8809 12.6271L8.17015 9.89888C8.04549 9.5243 8.22099 9.11572 8.57848 8.94823L13.5244 6.85425C13.826 8.57406 15.3168 9.83046 17.0629 9.83636C18.8089 9.83046 20.2997 8.57406 20.6013 6.85425L25.5486 8.94823C25.906 9.11572 26.0815 9.5243 25.9569 9.89888L25.2461 12.6283C25.1741 12.8568 24.9984 13.0377 24.7722 13.1164C24.546 13.1951 24.2959 13.1622 24.0977 13.0277L22.3495 12.3897V18.1613L25.0292 23.4339C25.3442 24.0275 25.1491 24.7637 24.5813 25.1233C22.3038 26.479 19.7128 27.2191 17.0629 27.2709C14.4143 27.2188 11.8248 26.4792 9.54827 25.1246C8.9798 24.7649 8.78455 24.0279 9.10038 23.4339L11.7801 18.1613V12.391L10.0319 13.029C9.83321 13.1645 9.58204 13.1976 9.35502 13.1183C9.128 13.0391 8.95206 12.8568 8.8809 12.6271Z" stroke="black" stroke-width="1.5" stroke-linecap="round" stroke-linejoin="round"/>
<path d="M11.0399 12.5397C11.122 12.9457 11.5177 13.2082 11.9237 13.1261C12.3297 13.044 12.5922 12.6483 12.5101 12.2423L11.0399 12.5397ZM12.1015 10.9578C11.9823 10.5611 11.5641 10.3362 11.1674 10.4554C10.7707 10.5745 10.5458 10.9927 10.665 11.3894L12.1015 10.9578ZM12.1524 17.5144C11.7945 17.306 11.3353 17.4271 11.1269 17.7851C10.9184 18.143 11.0396 18.6022 11.3975 18.8106L12.1524 17.5144ZM17.0629 19.7244L17.0276 20.4736C17.0512 20.4747 17.0748 20.4747 17.0983 20.4736L17.0629 19.7244ZM22.7284 18.8093C23.0863 18.6007 23.2074 18.1415 22.9988 17.7836C22.7903 17.4258 22.3311 17.3047 21.9732 17.5132L22.7284 18.8093ZM21.6157 12.241C21.5336 12.647 21.7961 13.0427 22.2021 13.1248C22.6081 13.2069 23.0038 12.9444 23.0859 12.5384L21.6157 12.241ZM23.4608 11.3882C23.58 10.9915 23.3551 10.5733 22.9584 10.4541C22.5617 10.3349 22.1435 10.5599 22.0243 10.9566L23.4608 11.3882ZM12.5101 12.2423C12.4647 12.0178 12.3718 11.7412 12.2957 11.5223C12.2092 11.2733 12.1401 11.0862 12.1015 10.9578L10.665 11.3894C10.7157 11.5584 10.8087 11.8128 10.8788 12.0146C10.9593 12.2464 11.0177 12.4299 11.0399 12.5397L12.5101 12.2423ZM11.3975 18.8106C13.1131 19.8098 15.0445 20.3802 17.0276 20.4736L17.0982 18.9752C15.3561 18.8932 13.6595 18.3921 12.1524 17.5144L11.3975 18.8106ZM17.0983 20.4736C19.0816 20.3798 21.0129 19.8089 22.7284 18.8093L21.9732 17.5132C20.4663 18.3913 18.7697 18.8929 17.0275 18.9752L17.0983 20.4736ZM23.0859 12.5384C23.1081 12.4286 23.1665 12.2451 23.247 12.0133C23.3171 11.8115 23.4101 11.5571 23.4608 11.3882L22.0243 10.9566C21.9857 11.0849 21.9166 11.272 21.8301 11.521C21.754 11.7399 21.6611 12.0165 21.6157 12.241L23.0859 12.5384Z" fill="black"/>
</svg>
