<svg width="63" height="81" viewBox="0 0 63 81" fill="none" xmlns="http://www.w3.org/2000/svg">
<g filter="url(#filter0_d_2358_531)">
<path d="M21.4871 41.9094L28.1644 45.7646L14.6049 69.2504L10.713 60.5707L21.4871 41.9094Z" fill="#418ED6"/>
<path d="M21.4871 41.9094L14.8097 38.0543L1.25019 61.5401L10.713 60.5707L21.4871 41.9094Z" fill="#2B63A6"/>
<path d="M31.0134 41.9094L24.3361 45.7646L37.8956 69.2504L41.7875 60.5707L31.0134 41.9094Z" fill="#2B63A6"/>
<path d="M31.0134 41.9094L37.6908 38.0543L51.2503 61.5401L41.7875 60.5707L31.0134 41.9094Z" fill="#418ED6"/>
<circle cx="26.2395" cy="25.7385" r="23.4888" fill="#E3E3E3" stroke="#404040"/>
<circle cx="26.2395" cy="25.7385" r="17.9448" fill="#595959"/>
<mask id="mask0_2358_531" style="mask-type:alpha" maskUnits="userSpaceOnUse" x="9" y="9" width="37" height="37">
<circle cx="27.1973" cy="27.6543" r="17.9866" fill="#C28B37"/>
</mask>
<g mask="url(#mask0_2358_531)">
<circle cx="26.2395" cy="25.7385" r="17.9866" fill="url(#paint0_linear_2358_531)"/>
</g>
<path d="M26.3364 13.2256L30.2164 20.9855L37.9763 21.9555L32.6478 27.9306L34.0963 36.5053L26.3364 32.6254L18.5765 36.5053L20.0379 27.9306L14.6965 21.9555L22.4565 20.9855L26.3364 13.2256Z" fill="url(#paint1_linear_2358_531)"/>
</g>
<defs>
<filter id="filter0_d_2358_531" x="0.466746" y="0.966258" width="62.536" height="80.0367" filterUnits="userSpaceOnUse" color-interpolation-filters="sRGB">
<feFlood flood-opacity="0" result="BackgroundImageFix"/>
<feColorMatrix in="SourceAlpha" type="matrix" values="0 0 0 0 0 0 0 0 0 0 0 0 0 0 0 0 0 0 127 0" result="hardAlpha"/>
<feOffset dx="5.48449" dy="5.48449"/>
<feGaussianBlur stdDeviation="3.13399"/>
<feComposite in2="hardAlpha" operator="out"/>
<feColorMatrix type="matrix" values="0 0 0 0 0 0 0 0 0 0 0 0 0 0 0 0 0 0 0.3 0"/>
<feBlend mode="normal" in2="BackgroundImageFix" result="effect1_dropShadow_2358_531"/>
<feBlend mode="normal" in="SourceGraphic" in2="effect1_dropShadow_2358_531" result="shape"/>
</filter>
<linearGradient id="paint0_linear_2358_531" x1="26.2395" y1="7.75195" x2="26.2395" y2="43.7251" gradientUnits="userSpaceOnUse">
<stop stop-color="#9CA1A3"/>
<stop offset="1" stop-color="#9CA1A3" stop-opacity="0"/>
</linearGradient>
<linearGradient id="paint1_linear_2358_531" x1="26.3364" y1="13.2256" x2="26.3364" y2="36.5053" gradientUnits="userSpaceOnUse">
<stop stop-color="#F1F5F5"/>
<stop offset="0.0001" stop-color="white"/>
<stop offset="1" stop-color="#F1F5F5"/>
</linearGradient>
</defs>
</svg>
