<svg width="35" height="35" viewBox="0 0 35 35" fill="none" xmlns="http://www.w3.org/2000/svg">
<path d="M22.7642 22.4944C20.7735 24.6313 18.3844 26.0087 16.1509 26.5253C13.9144 27.0425 11.8892 26.6899 10.5206 25.4593C9.15204 24.2287 8.61569 22.278 8.94259 20.0436C9.26907 17.8121 10.4546 15.3526 12.4454 13.2156C14.4362 11.0787 16.8252 9.70127 19.0588 9.1847C21.2953 8.66745 23.3204 9.02005 24.689 10.2507C26.0576 11.4813 26.5939 13.432 26.267 15.6664C25.9406 17.8978 24.755 20.3574 22.7642 22.4944Z" fill="white" stroke="black"/>
<path d="M21.0763 20.676C19.4456 22.4264 17.5841 23.6316 15.9132 24.1802C14.2239 24.7348 12.8486 24.5891 12.0264 23.8497C11.2042 23.1103 10.9349 21.7773 11.3481 20.0752C11.7567 18.3916 12.8142 16.4635 14.4449 14.713C16.0756 12.9626 17.9371 11.7574 19.608 11.2088C21.2973 10.6542 22.6726 10.8 23.4948 11.5393C24.317 12.2787 24.5863 13.6117 24.1731 15.3138C23.7645 16.9974 22.707 18.9255 21.0763 20.676Z" fill="white" stroke="black"/>
<path d="M24.5032 23.7973C21.7653 26.7362 18.4929 28.653 15.4355 29.3932C12.3741 30.1344 9.58964 29.6875 7.71581 28.0026C5.84198 26.3176 5.14301 23.6322 5.62411 20.5707C6.10456 17.5133 7.75889 14.1417 10.4968 11.2027C13.2348 8.26376 16.5071 6.34703 19.5645 5.60682C22.626 4.86564 25.4104 5.31249 27.2842 6.99745C29.158 8.6824 29.857 11.3678 29.3759 14.4293C28.8955 17.4867 27.2411 20.8583 24.5032 23.7973Z" fill="white" fill-opacity="0.3" stroke="black"/>
</svg>
