<svg width="80" height="80" viewBox="0 0 80 80" fill="none" xmlns="http://www.w3.org/2000/svg">
<path d="M46.9067 21.9556L47.3111 22.6178C47.3111 22.62 47.4556 22.8644 47.6244 23.2978L47.5022 23.2733C46.0711 22.9844 44.8022 22.1756 43.9267 20.9978L43.6267 20.5933C42.7222 19.3756 41.3667 18.6467 40 18.6467C38.6333 18.6467 37.2778 19.3756 36.3733 20.5933L36.0733 20.9978C35.1978 22.1756 33.9289 22.9844 32.4978 23.2733L32.3756 23.2978C32.5444 22.8644 32.6889 22.6178 32.6911 22.6133L33.0933 21.9556C33.9222 21.6267 34.6511 21.0733 35.1933 20.3422L35.4933 19.9378C36.6022 18.4422 38.2867 17.5489 40 17.5467C41.7133 17.5489 43.3978 18.4422 44.5067 19.9378L44.8067 20.3422C45.3489 21.0711 46.0778 21.6267 46.9067 21.9556ZM19.9333 44.5089L20.3378 44.8089C21.0667 45.3489 21.62 46.0756 21.9489 46.9044L22.6111 47.3089C22.6156 47.3111 22.86 47.4556 23.2911 47.6244L23.2667 47.5067C22.9778 46.0756 22.1689 44.8067 20.9911 43.9311L20.5867 43.6311C19.3689 42.7267 18.64 41.3711 18.64 40.0044C18.64 38.6378 19.3689 37.2822 20.5867 36.3778L20.9911 36.0778C22.1689 35.2022 22.9778 33.9333 23.2667 32.5022L23.2911 32.3778C22.86 32.5467 22.6156 32.6889 22.6156 32.6889L21.9511 33.0956C21.6202 33.9332 21.0613 34.6615 20.3378 35.1978L19.9333 35.4978C18.4378 36.6067 17.5444 38.2911 17.5422 40.0044C17.5444 41.7156 18.4378 43.4 19.9333 44.5089ZM35.1933 59.6644L35.4933 60.0689C36.6022 61.5644 38.2867 62.4578 40 62.46C41.7111 62.4578 43.3956 61.5644 44.5067 60.0689L44.8067 59.6644C45.3489 58.9356 46.0756 58.38 46.9044 58.0533L47.3111 57.3889C47.3133 57.3844 47.4578 57.14 47.6244 56.7111L47.5044 56.7356C46.0733 57.0244 44.8044 57.8333 43.9289 59.0111L43.6289 59.4156C42.7244 60.6333 41.3689 61.3622 40.0022 61.3622C38.6356 61.3622 37.28 60.6333 36.3756 59.4156L36.0756 59.0111C35.2067 57.8358 33.9326 57.025 32.5 56.7356L32.38 56.7111C32.5467 57.14 32.6889 57.3822 32.6911 57.3844L33.1 58.0533C33.9335 58.3862 34.6582 58.9439 35.1933 59.6644ZM60.0667 35.4956L59.6622 35.1956C58.938 34.6599 58.379 33.9314 58.0489 33.0933L57.3911 32.6911C57.3867 32.6889 57.14 32.5444 56.7089 32.3756L56.7333 32.5C57.0222 33.9311 57.8311 35.2 59.0111 36.0756L59.4156 36.3756C60.6333 37.28 61.3622 38.6356 61.3622 40.0022C61.36 41.3689 60.6333 42.7244 59.4156 43.6289L59.0111 43.9289C57.8359 44.7982 57.0245 46.072 56.7333 47.5044L56.7089 47.6222C57.1378 47.4533 57.3822 47.3111 57.3844 47.3111L58.0511 46.9044C58.38 46.0778 58.9333 45.3511 59.6622 44.8089L60.0667 44.5089C61.5622 43.4 62.4556 41.7156 62.4578 40.0022C62.4556 38.2911 61.56 36.6067 60.0667 35.4956ZM35.3289 50.8956C35.9733 51.0267 36.5467 51.3911 36.9422 51.9244L37.1222 52.1667C37.8289 53.1178 38.9044 53.6867 40.0022 53.6889C41.0978 53.6889 42.1733 53.12 42.88 52.1667L43.06 51.9244C43.4556 51.3911 44.0289 51.0267 44.6733 50.8956L47.1867 50.3867C47.2356 50.3778 47.2822 50.3644 47.3311 50.3511C47.2042 50.0375 47.0649 49.7291 46.9133 49.4267L46.8667 49.3311L44.4578 49.8178C43.5467 50.0022 42.7378 50.5156 42.1822 51.2667L42.0022 51.5089C41.5 52.1844 40.7533 52.5867 40.0044 52.5889C39.2533 52.5889 38.5067 52.1844 38.0044 51.5089L37.8244 51.2667C37.2709 50.5182 36.4592 50.0018 35.5467 49.8178L33.14 49.3311L33.0911 49.4267C32.9333 49.7378 32.7933 50.0444 32.6689 50.3489C32.7178 50.36 32.7667 50.3733 32.8156 50.3844L35.3289 50.8956ZM50.8911 44.6756C51.0222 44.0311 51.3867 43.4578 51.92 43.0622L52.1622 42.8822C53.1133 42.1756 53.6822 41.1 53.6844 40.0022C53.6844 38.9067 53.1133 37.8311 52.1622 37.1244L51.92 36.9444C51.3867 36.5489 51.0222 35.9756 50.8911 35.3311L50.3822 32.8178C50.3733 32.7689 50.3578 32.72 50.3467 32.6711C50.0378 32.7978 49.7289 32.9333 49.4289 33.0867L49.3289 33.1378L49.8156 35.5467C50 36.4578 50.5133 37.2667 51.2644 37.8244L51.5067 38.0044C52.1822 38.5044 52.5844 39.2533 52.5867 40.0022C52.5867 40.7533 52.1822 41.5 51.5067 42.0022L51.2644 42.1822C50.5169 42.7357 50.0008 43.5463 49.8156 44.4578L49.3311 46.86L49.4289 46.9111C49.7378 47.0689 50.0444 47.2067 50.3489 47.3311C50.36 47.2844 50.3733 47.2378 50.3822 47.1889L50.8911 44.6756ZM30.6689 46.8622L30.1844 44.46C30 43.5489 29.4844 42.74 28.7356 42.1844L28.4933 42.0044C27.8178 41.5044 27.4156 40.7556 27.4133 40.0067C27.4133 39.2556 27.8178 38.5089 28.4933 38.0089L28.7356 37.8289C29.4867 37.2711 30 36.4644 30.1844 35.5511L30.6711 33.1422L30.5711 33.0911C30.2622 32.9333 29.9556 32.7956 29.6533 32.6711C29.6422 32.72 29.6267 32.7711 29.6178 32.82L29.1089 35.3333C28.9778 35.9778 28.6133 36.5511 28.08 36.9467L27.8378 37.1267C26.8867 37.8333 26.3178 38.9089 26.3156 40.0044C26.3156 41.1 26.8844 42.1756 27.8378 42.8822L28.08 43.0622C28.6133 43.4578 28.9778 44.0311 29.1089 44.6756L29.6178 47.1889C29.6267 47.2356 29.64 47.2822 29.6511 47.3267C29.9622 47.2 30.2711 47.0644 30.5711 46.9089L30.6689 46.8622ZM44.6711 29.1133C44.0267 28.9822 43.4533 28.6178 43.0578 28.0844L42.8778 27.8422C42.1711 26.8911 41.0956 26.3222 40 26.32C38.9044 26.32 37.8289 26.8889 37.1222 27.8422L36.9422 28.0844C36.5467 28.6178 35.9733 28.9822 35.3289 29.1133L32.8156 29.6222C32.7689 29.6311 32.7222 29.6444 32.6756 29.6556C32.8022 29.9644 32.9378 30.2711 33.0911 30.5711L33.1422 30.6733L35.5467 30.1867C36.4578 30.0022 37.2667 29.4889 37.8244 28.7378L38.0044 28.4956C38.5044 27.82 39.2533 27.4178 40.0022 27.4156C40.7533 27.4156 41.5 27.82 42.0022 28.4956L42.1822 28.7378C42.7353 29.4857 43.5461 30.002 44.4578 30.1867L46.8622 30.6733L46.9156 30.5711C47.0733 30.2644 47.2111 29.9578 47.3333 29.6556C47.2844 29.6444 47.2378 29.6311 47.1889 29.62L44.6711 29.1133ZM75.8733 32.2378L75.1444 31.6978C73.3267 30.3489 72.08 28.3911 71.6356 26.1867L70.5111 20.6244C70.3444 20.8289 70.1667 21.0289 69.9756 21.2178C69.8489 21.3444 69.72 21.4667 69.5867 21.5844L70.56 26.4022C71.06 28.8733 72.4556 31.0644 74.4911 32.5756L75.22 33.1156C77.5244 34.8267 78.9022 37.4 78.9044 39.9978C78.9022 42.5978 77.5244 45.1711 75.22 46.8822L74.4911 47.4222C72.4556 48.9333 71.06 51.1244 70.56 53.5956L69.5867 58.4133C69.72 58.5311 69.8489 58.6533 69.9756 58.78C70.1645 58.9689 70.3444 59.1667 70.5111 59.3711L71.6356 53.8111C72.08 51.6067 73.3267 49.6489 75.1444 48.3L75.8733 47.76C78.4556 45.8444 79.9978 42.9422 80 39.9956C79.9978 37.0556 78.4533 34.1533 75.8733 32.2378ZM21.22 10.0244C21.3467 10.1511 21.4689 10.28 21.5867 10.4133L26.4044 9.44C28.8756 8.94 31.0667 7.54444 32.5778 5.50889L33.1178 4.78C34.8289 2.47556 37.4022 1.09778 40 1.09556C42.6 1.09778 45.1733 2.47556 46.8844 4.78L47.4244 5.50889C48.9356 7.54444 51.1267 8.94 53.5978 9.44L58.4178 10.4133C58.5356 10.28 58.6578 10.1511 58.7844 10.0244C58.9733 9.83556 59.1711 9.65555 59.3756 9.48889L53.8156 8.36444C51.6111 7.92 49.6533 6.67333 48.3044 4.85556L47.7644 4.12667C45.8467 1.54444 42.9444 0.00222222 40 0C37.0556 0.00222222 34.1533 1.54444 32.2378 4.12667L31.6978 4.85556C30.3489 6.67333 28.3911 7.92 26.1867 8.36444L20.6244 9.48889C20.8289 9.65555 21.0289 9.83333 21.22 10.0244ZM9.48889 59.3756C9.65778 59.1711 9.83333 58.9711 10.0244 58.78C10.1511 58.6533 10.28 58.5311 10.4133 58.4133L9.44 53.5956C8.94 51.1244 7.54444 48.9333 5.50889 47.4222L4.78 46.8822C2.47556 45.1711 1.09778 42.5978 1.09556 40C1.09778 37.4 2.47556 34.8267 4.78 33.1156L5.50889 32.5756C7.54444 31.0644 8.94 28.8733 9.44 26.4022L10.4133 21.5822C10.28 21.4644 10.1511 21.3422 10.0244 21.2156C9.83556 21.0267 9.65555 20.8289 9.48889 20.6222L8.36444 26.1822C7.92 28.3867 6.67333 30.3444 4.85556 31.6933L4.12667 32.2333C1.54667 34.1533 0.00222222 37.0556 0 40C0.00222222 42.9444 1.54667 45.8467 4.12667 47.7622L4.85556 48.3022C6.67333 49.6511 7.92 51.6089 8.36444 53.8133L9.48889 59.3756ZM58.7822 69.9756C58.6556 69.8489 58.5333 69.72 58.4156 69.5867L53.5978 70.56C51.1267 71.06 48.9356 72.4556 47.4244 74.4911L46.8844 75.22C45.1733 77.5244 42.6 78.9022 40.0022 78.9044C37.4022 78.9022 34.8289 77.5244 33.1178 75.22L32.5778 74.4911C31.0667 72.4556 28.8756 71.06 26.4044 70.56L21.5844 69.5867C21.4667 69.72 21.3444 69.8489 21.2178 69.9756C21.0289 70.1645 20.8311 70.3444 20.6244 70.5111L26.1844 71.6356C28.3889 72.08 30.3467 73.3267 31.6956 75.1444L32.2356 75.8733C34.1511 78.4556 37.0533 79.9978 40 80C42.9444 79.9978 45.8467 78.4556 47.7622 75.8733L48.3022 75.1444C49.6511 73.3267 51.6089 72.08 53.8133 71.6356L59.3756 70.5111C59.1711 70.3422 58.9711 70.1667 58.7822 69.9756ZM71.2289 40C71.2267 37.6711 70.0089 35.3778 67.9689 33.8667L67.4022 33.4467C66.0133 32.4156 65.06 30.92 64.72 29.2356L63.8133 24.7467C63.5618 24.9434 63.3221 25.1549 63.0956 25.38C63.0178 25.4578 62.9467 25.54 62.8733 25.62L63.6467 29.4511C64.0422 31.4022 65.1444 33.1333 66.7511 34.3267L67.3178 34.7467C69.08 36.0533 70.1311 38.0178 70.1333 40.0022C70.1311 41.9844 69.08 43.9489 67.3178 45.2578L66.7511 45.6778C65.1444 46.8711 64.0422 48.6022 63.6467 50.5533L62.8733 54.3822C62.9467 54.4622 63.0178 54.5444 63.0956 54.6222C63.3222 54.8489 63.5622 55.06 63.8133 55.2578L64.72 50.7733C65.06 49.0889 66.0133 47.5933 67.4022 46.5622L67.9689 46.1422C70.0089 44.6222 71.2267 42.3289 71.2289 40ZM46.5556 12.5978L46.1356 12.0311C44.6222 9.99333 42.3289 8.77556 40 8.77333C37.6711 8.77556 35.3778 9.99333 33.8667 12.0311L33.4467 12.5978C32.4156 13.9867 30.92 14.94 29.2356 15.28L24.7489 16.1867C24.9444 16.4378 25.1556 16.6778 25.3822 16.9044C25.46 16.9822 25.5422 17.0533 25.6222 17.1289L29.4511 16.3556C31.4022 15.9622 33.1333 14.86 34.3244 13.2511L34.7444 12.6844C36.0511 10.9222 38.0178 9.87111 40 9.86889C41.9822 9.87111 43.9467 10.9222 45.2556 12.6844L45.6756 13.2511C46.8689 14.8578 48.6 15.96 50.5489 16.3556L54.3778 17.1289C54.4578 17.0533 54.54 16.9822 54.6178 16.9044C54.8444 16.6778 55.0556 16.4378 55.2511 16.1867L50.7644 15.28C49.0822 14.94 47.5867 13.9867 46.5556 12.5978ZM12.0311 46.1356L12.5978 46.5556C13.9867 47.5867 14.94 49.0822 15.28 50.7667L16.1867 55.2533C16.4378 55.0578 16.68 54.8444 16.9067 54.6178C16.9844 54.54 17.0556 54.4578 17.1289 54.38L16.3556 50.5511C15.96 48.6 14.8578 46.8689 13.2511 45.6778L12.6844 45.2578C10.9222 43.9511 9.87111 41.9867 9.86889 40.0044C9.87111 38.0222 10.9222 36.0556 12.6844 34.7489L13.2511 34.3289C14.8578 33.1356 15.96 31.4044 16.3556 29.4533L17.1289 25.6222C17.0556 25.5422 16.9844 25.46 16.9067 25.3822C16.68 25.1556 16.44 24.9444 16.1889 24.7467L15.2822 29.2356C14.9422 30.92 13.9889 32.4156 12.6 33.4467L12.0333 33.8667C9.99556 35.38 8.77556 37.6733 8.77556 40.0022C8.77333 42.3289 9.99111 44.6222 12.0311 46.1356ZM33.4444 67.4044L33.8644 67.9711C35.3778 70.0089 37.6711 71.2267 40 71.2289C42.3289 71.2267 44.6222 70.0089 46.1333 67.9711L46.5533 67.4044C47.5844 66.0156 49.08 65.0622 50.7644 64.7222L55.2533 63.8156C55.0578 63.5622 54.8444 63.3222 54.6178 63.0956C54.54 63.0178 54.46 62.9489 54.38 62.8733L50.5489 63.6489C48.5978 64.0422 46.8667 65.1444 45.6756 66.7533L45.2556 67.32C43.9489 69.0822 41.9822 70.1333 40 70.1356C38.0178 70.1333 36.0533 69.0822 34.7444 67.32L34.3244 66.7533C33.1311 65.1467 31.4 64.0444 29.4511 63.6489L25.62 62.8756C25.54 62.9489 25.46 63.02 25.3822 63.0978C25.1556 63.3244 24.9422 63.5644 24.7467 63.8178L29.2356 64.7244C30.9178 65.0622 32.4133 66.0156 33.4444 67.4044ZM58.4133 21.1378C58.9022 21.2356 59.3867 21.3422 59.8667 21.4467C62.7356 22.0733 65.4444 22.6644 67.9356 21.3756C68.3756 21.1489 68.8022 20.8289 69.2044 20.4422C70.9467 18.6978 71.5489 16.2467 71.0089 14.0133L69.88 14.1489C70.3044 15.7422 70.0267 17.4844 69.0489 18.8844L69.0467 18.8822C68.8444 18.24 68.3311 17.8378 67.6733 17.5622C67.0156 17.2867 66.2133 17.1356 65.4311 16.9933C64.8089 16.88 64.2556 16.5889 63.8244 16.1733C63.4067 15.7422 63.1178 15.1889 63.0044 14.5667C62.8622 13.7844 62.7111 12.9822 62.4356 12.3244C62.16 11.6667 61.7578 11.1556 61.1178 10.9511C62.0933 10.2689 63.2356 9.92889 64.38 9.92889C64.8756 9.92889 65.3689 9.99333 65.8511 10.12L65.9867 8.99111C65.46 8.86444 64.9178 8.8 64.38 8.8C62.6356 8.8 60.8889 9.46667 59.5578 10.7978C58.6664 11.6862 57.9992 12.7739 57.6111 13.9711C57.1915 15.3713 56.4301 16.6451 55.3956 17.6778C54.7116 18.3633 53.9316 18.9457 53.08 19.4067L49.0067 21.6311C52.6111 19.9711 55.6822 20.5889 58.4133 21.1378ZM59.6311 22.5289C59.1556 22.4244 58.6778 22.32 58.1956 22.2244C55.32 21.6444 52.3467 21.0467 48.7511 22.9978L48.6978 23.0267C48.8467 23.4289 49.0022 23.9422 49.1111 24.5489C49.4089 26.1978 49.1289 28.64 47.8867 31.0689C47.8867 31.0689 48.1467 31.2489 48.4489 31.5511C48.7511 31.8533 48.9311 32.1133 48.9311 32.1133C50.78 31.1689 52.6378 30.78 54.1467 30.78C54.62 30.78 55.06 30.8178 55.4533 30.8889C57 31.1689 57.9556 31.7511 57.9556 31.7511L60.5933 26.92C61.0422 26.0889 61.6178 25.3067 62.3222 24.6044C62.8464 24.0792 63.4347 23.6223 64.0733 23.2444C62.6244 23.1822 61.1467 22.86 59.6311 22.5289ZM21.1378 21.5867C21.2356 21.0978 21.3422 20.6133 21.4467 20.1333C22.0733 17.2644 22.6644 14.5556 21.3756 12.0644C21.1489 11.6244 20.8289 11.1978 20.4422 10.7956C18.6978 9.05333 16.2467 8.45111 14.0133 8.99111L14.1489 10.12C15.7422 9.69556 17.4844 9.97333 18.8844 10.9511L18.8822 10.9533C18.24 11.1556 17.8378 11.6689 17.5622 12.3267C17.2867 12.9844 17.1356 13.7867 16.9933 14.5689C16.88 15.1911 16.5889 15.7444 16.1733 16.1756C15.7422 16.5933 15.1889 16.8822 14.5667 16.9956C13.7844 17.1378 12.9822 17.2889 12.3244 17.5644C11.6667 17.84 11.1556 18.2422 10.9511 18.8822C10.2689 17.9067 9.92889 16.7644 9.92889 15.62C9.92889 15.1244 9.99333 14.6311 10.12 14.1489L8.99111 14.0133C8.86444 14.54 8.8 15.0822 8.8 15.62C8.8 17.3644 9.46667 19.1111 10.7978 20.4422C11.72 21.3644 12.8111 22.0133 13.9711 22.3889C15.3267 22.7956 16.6067 23.5333 17.6778 24.6044C18.3633 25.2884 18.9457 26.0684 19.4067 26.92L21.6311 30.9933C19.9711 27.3889 20.5889 24.3178 21.1378 21.5867ZM22.5289 20.3689C22.4244 20.8444 22.32 21.3222 22.2244 21.8044C21.6444 24.68 21.0467 27.6533 22.9978 31.2489L23.0267 31.3022C23.4289 31.1533 23.9422 30.9978 24.5489 30.8889C26.1978 30.5911 28.64 30.8711 31.0689 32.1133C31.0689 32.1133 31.2489 31.8533 31.5511 31.5511C31.8533 31.2489 32.1133 31.0689 32.1133 31.0689C31.1689 29.22 30.78 27.3622 30.78 25.8533C30.78 25.38 30.8178 24.94 30.8889 24.5467C31.1689 23 31.7511 22.0444 31.7511 22.0444L26.92 19.4067C26.0679 18.9464 25.2878 18.3639 24.6044 17.6778C24.0792 17.1536 23.6223 16.5653 23.2444 15.9267C23.1822 17.3778 22.8622 18.8533 22.5289 20.3689ZM21.5867 58.8622C21.0978 58.7644 20.6133 58.6578 20.1333 58.5533C17.2644 57.9267 14.5556 57.3356 12.0644 58.6244C11.6244 58.8511 11.1978 59.1711 10.7956 59.5578C9.05333 61.3022 8.45111 63.7533 8.99111 65.9867L10.12 65.8511C9.69556 64.2578 9.97333 62.5156 10.9511 61.1156L10.9533 61.1178C11.1556 61.76 11.6689 62.1622 12.3267 62.4378C12.9844 62.7133 13.7867 62.8644 14.5689 63.0067C15.1911 63.12 15.7444 63.4111 16.1756 63.8267C16.5933 64.2578 16.8822 64.8111 16.9956 65.4333C17.1378 66.2156 17.2889 67.0178 17.5644 67.6756C17.84 68.3333 18.2422 68.8444 18.8822 69.0489C17.9067 69.7311 16.7644 70.0711 15.62 70.0711C15.1244 70.0711 14.6311 70.0067 14.1489 69.88L14.0133 71.0089C14.54 71.1356 15.0822 71.2 15.62 71.2C17.3644 71.2 19.1111 70.5333 20.4422 69.2022C21.3644 68.28 22.0133 67.1889 22.3889 66.0289C22.7956 64.6733 23.5333 63.3933 24.6044 62.3222C25.2884 61.6367 26.0684 61.0543 26.92 60.5933L30.9933 58.3689C27.3889 60.0289 24.3178 59.4111 21.5867 58.8622ZM20.3711 57.4711C20.8467 57.5756 21.3244 57.68 21.8067 57.7756C24.6822 58.3556 27.6556 58.9533 31.2511 57.0022L31.3044 56.9733C31.1556 56.5711 31 56.0578 30.8911 55.4511C30.5933 53.8022 30.8733 51.36 32.1156 48.9311C32.1156 48.9311 31.8556 48.7511 31.5533 48.4489C31.2511 48.1467 31.0711 47.8867 31.0711 47.8867C29.2222 48.8311 27.3644 49.22 25.8556 49.22C25.3822 49.22 24.9422 49.1822 24.5489 49.1111C23.0022 48.8311 22.0467 48.2489 22.0467 48.2489L19.4089 53.08C18.9486 53.9321 18.3662 54.7122 17.68 55.3956C17.1558 55.9208 16.5675 56.3777 15.9289 56.7556C17.3778 56.8178 18.8533 57.14 20.3711 57.4711ZM58.8622 58.4133C58.7644 58.9022 58.6578 59.3867 58.5533 59.8667C57.9267 62.7356 57.3356 65.4444 58.6244 67.9356C58.8511 68.3756 59.1711 68.8022 59.5578 69.2044C61.3022 70.9467 63.7533 71.5489 65.9867 71.0089L65.8511 69.88C64.2578 70.3044 62.5156 70.0267 61.1156 69.0489L61.1178 69.0467C61.76 68.8444 62.1622 68.3311 62.4378 67.6733C62.7133 67.0156 62.8644 66.2133 63.0067 65.4311C63.12 64.8089 63.4111 64.2556 63.8267 63.8244C64.2578 63.4067 64.8111 63.1178 65.4333 63.0044C66.2156 62.8622 67.0178 62.7111 67.6756 62.4356C68.3333 62.16 68.8444 61.7578 69.0489 61.1178C69.7311 62.0933 70.0711 63.2356 70.0711 64.38C70.0711 64.8756 70.0067 65.3689 69.88 65.8511L71.0089 65.9867C71.1356 65.46 71.2 64.9178 71.2 64.38C71.2 62.6356 70.5333 60.8889 69.2022 59.5578C68.3138 58.6664 67.2261 57.9992 66.0289 57.6111C64.6287 57.1915 63.3549 56.4301 62.3222 55.3956C61.6367 54.7116 61.0543 53.9316 60.5933 53.08L58.3689 49.0067C60.0289 52.6111 59.4133 55.6822 58.8622 58.4133ZM57.4711 59.6289C57.5756 59.1533 57.68 58.6756 57.7756 58.1933C58.3556 55.3178 58.9533 52.3444 57.0022 48.7489L56.9733 48.6956C56.5711 48.8444 56.0578 49 55.4511 49.1089C53.8022 49.4067 51.36 49.1267 48.9311 47.8844C48.9311 47.8844 48.7511 48.1444 48.4489 48.4467C48.1467 48.7489 47.8867 48.9289 47.8867 48.9289C48.8311 50.7778 49.22 52.6356 49.22 54.1444C49.22 54.6178 49.1822 55.0578 49.1111 55.4511C48.8311 56.9978 48.2489 57.9533 48.2489 57.9533L53.08 60.5911C53.9111 61.04 54.6933 61.6156 55.3956 62.32C55.9208 62.8442 56.3777 63.4325 56.7556 64.0711C56.8178 62.6222 57.14 61.1467 57.4711 59.6289Z" fill="black"/>
</svg>
