<svg width="28" height="29" viewBox="0 0 28 29" fill="none" xmlns="http://www.w3.org/2000/svg">
<path d="M19.7977 10.5039C21.5263 11.7439 23.6438 12.4735 25.9309 12.4735V8.05686C25.4981 8.05696 25.0663 8.01166 24.6429 7.92162V11.3982C22.356 11.3982 20.2387 10.6686 18.5097 9.42863V18.4418C18.5097 22.9506 14.8676 26.6055 10.375 26.6055C8.69872 26.6055 7.14069 26.0969 5.84644 25.2247C7.32362 26.7405 9.38366 27.6808 11.6627 27.6808C16.1556 27.6808 19.7979 24.0259 19.7979 19.5169V10.5039H19.7977ZM21.3866 6.04801C20.5032 5.07947 19.9232 3.82782 19.7977 2.44406V1.87598H18.5771C18.8844 3.63474 19.9323 5.13731 21.3866 6.04801ZM8.68797 21.7648C8.19442 21.1153 7.9277 20.3209 7.9289 19.504C7.9289 17.4418 9.59479 15.7698 11.6501 15.7698C12.0331 15.7697 12.4138 15.8285 12.7788 15.9448V11.4294C12.3523 11.3707 11.9217 11.3458 11.4914 11.3549V14.8695C11.1261 14.7532 10.7452 14.6942 10.362 14.6946C8.30678 14.6946 6.64098 16.3664 6.64098 18.4289C6.64098 19.8872 7.47365 21.1497 8.68797 21.7648Z" fill="white"/>
<path d="M18.5096 9.42854C20.2386 10.6685 22.3559 11.3981 24.6428 11.3981V7.92153C23.3662 7.64866 22.2362 6.97919 21.3865 6.04801C19.9321 5.13722 18.8842 3.63464 18.577 1.87598H15.3709V19.5167C15.3637 21.5732 13.7006 23.2385 11.6498 23.2385C10.4412 23.2385 9.36756 22.6603 8.68758 21.7648C7.47335 21.1497 6.64068 19.8871 6.64068 18.429C6.64068 16.3667 8.30648 14.6947 10.3617 14.6947C10.7555 14.6947 11.1351 14.7562 11.4911 14.8696V11.355C7.07746 11.4465 3.52783 15.0657 3.52783 19.5168C3.52783 21.7387 4.41177 23.753 5.84641 25.2248C7.14067 26.0969 8.6987 26.6056 10.375 26.6056C14.8676 26.6056 18.5097 22.9506 18.5097 18.4418V9.42854H18.5096Z" fill="white"/>
</svg>
